/* XPM */
static char *dolphin[] = {
/* columns rows colors chars-per-pixel */
"50 50 90 1 ",
"  c #343434",
". c #393939",
"X c #3A3A3A",
"o c #3C3C3C",
"O c #3D3D3D",
"+ c #3F3F3F",
"@ c #404040",
"# c #414141",
"$ c #424242",
"% c #434343",
"& c #444444",
"* c #454545",
"= c #464646",
"- c #474747",
"; c #494949",
": c #4A4A4A",
"> c #4B4B4B",
", c #4C4C4C",
"< c #4D4D4D",
"1 c #4E4E4E",
"2 c #4F4F4F",
"3 c #505050",
"4 c #515151",
"5 c #525252",
"6 c #535353",
"7 c #545454",
"8 c #555555",
"9 c #565656",
"0 c #575757",
"q c #585858",
"w c #595959",
"e c #5A5A5A",
"r c #5B5B5B",
"t c #5C5C5C",
"y c #5D5D5D",
"u c #5E5E5E",
"i c #5F5F5F",
"p c #606060",
"a c #616161",
"s c #626262",
"d c #636363",
"f c #646464",
"g c #656565",
"h c #666666",
"j c #676767",
"k c #686868",
"l c #696969",
"z c #6A6A6A",
"x c #6B6B6B",
"c c #6C6C6C",
"v c #6D6D6D",
"b c #6E6E6E",
"n c #6F6F6F",
"m c #707070",
"M c #717171",
"N c #727272",
"B c #737373",
"V c #747474",
"C c #757575",
"Z c #767676",
"A c #777777",
"S c #797979",
"D c #7A7A7A",
"F c #7C7C7C",
"G c #7D7D7D",
"H c #7E7E7E",
"J c #7F7F7F",
"K c #818181",
"L c #838383",
"P c #858585",
"I c #888888",
"U c #898989",
"Y c #8B8B8B",
"T c #8C8C8C",
"R c #8D8D8D",
"E c #8E8E8E",
"W c #909090",
"Q c #919191",
"! c #969696",
"~ c #9A9A9A",
"^ c #9C9C9C",
"/ c #9D9D9D",
"( c #9E9E9E",
") c #9F9F9F",
"_ c #A1A1A1",
"` c #A9A9A9",
"' c #AAAAAA",
"] c #B0B0B0",
"[ c #B2B2B2",
"{ c None",
/* pixels */
"{{{{{{{{{{{{{{{{{{{{{{{{{{{{{{{{{{{{{{{{{{{{{{{{{{",
"{{{{{{{{{{{{{{{{{{{{{{{{{{{{{{{{{{{{{{{{{{{{{{{{{{",
"{{{{{{{{{{{{{{{{{{{{{{{{{{{{{{{{{{{{{{{{{{{{{{{{{{",
"{{{{{{{{{{{{{{{{{{{{{{{{{{{{{{{{{{{{{{{{{{{{{{{{{{",
"{{{{{{{{{{{{{{{{{{{{{{{{{{{{{{{{{{{{{{{{{{{{{{{{{{",
"{{{{{{{{{{{{{{{{{{{{{{{{{{{{{{{{{{{{{{{{{{{{{{{{{{",
"{{{{{{{{{{{{{{{{{{{{{{{{{{{{{{{{{{{{{{{{{{{{{{{{{{",
"{{{{{{{{{{{{{{{{{{{{{{{{{{{{{{{{{{{{{{{{{{{{{{{{{{",
"{{{{{{{{{{{{{{{{{{{{{{{{{{{{{{{{{{{{{{{{{{{{{{{{{{",
"{{{{{{{{{{{{{{{{{{{{{{O{{{{{{{{{{{{{{{{{{{{{{{{{{{",
"{{{{{{{{{{{{{{{{{{{{{7{{{{{{{{{{{{{{{{{{{{{{{{{{{{",
"{{{{{{{{{{{{{{{{{{{{y {{{{{{{{{{{{{{{{{{{{{{{{{{{{",
"{{{{{{{{{{{{{{{{{{{8O.{{{{{{{{{{{{{{{{{{{{{{{{{{{{",
"{{{{{{{{{{{{{{{{{{{%@+{{{{{{{{{{{{{{{{{{{{{{{{{{{{",
"{{{{{{{{{{{{{{{{{-==****;>*{{{{{{{{{{{{{{{{{{{{{{{",
"{{{{{{{{{{{{{{{12479q9,:<tvvu:{{{{{{{{{{{{{{{{{{{{",
"{{{{{{{{{{{{8779qruafhw335pBPTb3{{{{{{{{{{{{{{{{{{",
"{{{{{{{{{{{eeetisfjkja99880fZI~!h{{{{{{{{{{{{{{{{{",
"{{{{{{{{{appadffdsiyyttrrretkDY/'F{{{{{{{{{{{{{{{{",
"{{{{{{{{fffghfffddddsssaaappavGE)]U{{{{{{{{{{{{{{{",
"{{{{{{{aasdssssssdgkkhgffffffgmKQ_[Y{{{{{{{{{{{{{{",
"{{{{{{7diaiiippsxNBmbczkgdssssdbJW_]L{{{{{{{{{{{{{",
"{{{{{{giiyyyypvCVMnvxkhfspiiippacFR(`{{{{{{{{{{{{{",
"{{{{{wryeeerlCVNvlxljgsiytyyyyyyukDY^R{{{{{{{{{{{{",
"{{{{{qt0&0aBCBngupspyw9{{{{{{{{rrrucJHt{{{{{{{{{{{",
"{{{{8ee29zAVMzaipuunSN{{{{{{{{{{{{wwwwww{{{{{{{{{{",
"{{{{9w6wNCBciqazlzng{{{{{{{{{{{{{{{{9000{{{{{{{{{{",
"{{{{333lcx{{4443{{{{{{{{{{{{{{{{{{{{{{888{{{{{{{{{",
"{{{{14<{{{{{{{{{{{{{{{{{{{{{{{{{{{{{{{{565{{{{{{{{",
"{{{5w2{{{{{{{{{{{{{{{{{{{{{{{{{{{{{{{{{{33{{{{{{{{",
"{{{p{{{{{{{{{{{{{{{{{{{{{{{{{{{{{{{{{{{{{11{{{{{{{",
"{{{{{{{{{{{{{{{{{{{{{{{{{{{{{{{{{{{{{{{{{>>>3e{{{{",
"{{{{{{{{{{{{{{{{{{{{{{{{{{{{{{{{{{{{{{{{{;;;;,y{{{",
"{{{{{{{{{{{{{{{{{{{{{{{{{{{{{{{{{{{{{{{{===----8{{",
"{{{{{{{{{{{{{{{{{{{{{{{{{{{{{{{{{{{{{{{{&&&&&&**={",
"{{{{{{{{{{{{{{{{{{{{{{{{{{{{{{{{{{{{{{{{###{{{{$${",
"{{{{{{{{{{{{{{{{{{{{{{{{{{{{{{{{{{{{{{{{++{{{{{{{{",
"{{{{{{{{{{{{{{{{{{{{{{{{{{{{{{{{{{{{{{{{oo{{{{{{{{",
"{{{{{{{{{{{{{{{{{{{{{{{{{{{{{{{{{{{{{{{{X{{{{{{{{{",
"{{{{{{{{{{{{{{{{{{{{{{{{{{{{{{{{{{{{{{{{{{{{{{{{{{",
"{{{{{{{{{{{{{{{{{{{{{{{{{{{{{{{{{{{{{{{{{{{{{{{{{{",
"{{{{{{{{{{{{{{{{{{{{{{{{{{{{{{{{{{{{{{{{{{{{{{{{{{",
"{{{{{{{{{{{{{{{{{{{{{{{{{{{{{{{{{{{{{{{{{{{{{{{{{{",
"{{{{{{{{{{{{{{{{{{{{{{{{{{{{{{{{{{{{{{{{{{{{{{{{{{",
"{{{{{{{{{{{{{{{{{{{{{{{{{{{{{{{{{{{{{{{{{{{{{{{{{{",
"{{{{{{{{{{{{{{{{{{{{{{{{{{{{{{{{{{{{{{{{{{{{{{{{{{",
"{{{{{{{{{{{{{{{{{{{{{{{{{{{{{{{{{{{{{{{{{{{{{{{{{{",
"{{{{{{{{{{{{{{{{{{{{{{{{{{{{{{{{{{{{{{{{{{{{{{{{{{",
"{{{{{{{{{{{{{{{{{{{{{{{{{{{{{{{{{{{{{{{{{{{{{{{{{{",
"{{{{{{{{{{{{{{{{{{{{{{{{{{{{{{{{{{{{{{{{{{{{{{{{{{"
};
