/* XPM */
static char *pannel[] = {
/* columns rows colors chars-per-pixel */
"50 50 159 2 ",
"   c #7D4A35",
".  c #9A491A",
"X  c #A34B16",
"o  c #A95017",
"O  c #AC551B",
"+  c #AC5B1E",
"@  c #A5511D",
"#  c #B25618",
"$  c #B55B1B",
"%  c #B85D1C",
"&  c #BD601E",
"*  c #A55624",
"=  c #AB5A24",
"-  c #AF5D28",
";  c #B35D23",
":  c #AF612B",
">  c #BB6323",
",  c #BD6926",
"<  c #B2622B",
"1  c #BE6B29",
"2  c #B16326",
"3  c #BF7526",
"4  c #B76F31",
"5  c #BA6E34",
"6  c #C4641C",
"7  c #C36620",
"8  c #C66A23",
"9  c #C96D25",
"0  c #C36B29",
"q  c #C77026",
"w  c #CB7027",
"e  c #C6772E",
"r  c #CC742A",
"t  c #CF7A2D",
"y  c #D07C2F",
"u  c #CA7D3A",
"i  c #C27534",
"p  c #D17E31",
"a  c #875B45",
"s  c #895B46",
"d  c #8A5C48",
"f  c #91634D",
"g  c #876648",
"h  c #997665",
"j  c #C77F47",
"k  c #CA7C40",
"l  c #C17C4B",
"z  c #699E29",
"x  c #759E32",
"c  c #6DA52B",
"v  c #6BB22C",
"b  c #66B02E",
"n  c #76BA2E",
"m  c #6DAE3E",
"M  c #6AB331",
"N  c #75B030",
"B  c #78B031",
"V  c #72BD30",
"C  c #74B83F",
"Z  c #73C02E",
"A  c #75C230",
"S  c #7EC737",
"D  c #77C932",
"F  c #6FAD41",
"G  c #79BC45",
"H  c #7AB54E",
"J  c #77B14C",
"K  c #929930",
"L  c #83AD2F",
"P  c #8BAB3F",
"I  c #89B630",
"U  c #A8A135",
"Y  c #C68630",
"T  c #CC8239",
"R  c #D38334",
"E  c #D48639",
"W  c #D68A3A",
"Q  c #D98E3D",
"!  c #C4993B",
"~  c #D9903E",
"^  c #D4903B",
"/  c #82D538",
"(  c #808841",
")  c #8B824A",
"_  c #BC8048",
"`  c #BC917C",
"'  c #CE8346",
"]  c #CC864E",
"[  c #D28B4C",
"{  c #DB9342",
"}  c #DE9A46",
"|  c #CE8D59",
" . c #D39C57",
".. c #E09F48",
"X. c #C4B057",
"o. c #E2A34C",
"O. c #E0AB5F",
"+. c #C5987B",
"@. c #DFAB60",
"#. c #D6A37C",
"$. c #DAA67F",
"%. c #E1AA60",
"&. c #83C749",
"*. c #87D246",
"=. c #8FC65F",
"-. c #83C053",
";. c #92D05C",
":. c #90C765",
">. c #9ED968",
",. c #A2CF7C",
"<. c #A3D674",
"1. c #D5A581",
"2. c #DAA780",
"3. c #C8AB9B",
"4. c #C3AFAB",
"5. c #C4B1AC",
"6. c #C8B5B1",
"7. c #CBB8B4",
"8. c #CEBCB8",
"9. c #A3CD81",
"0. c #AFD78D",
"q. c #B5DD8F",
"w. c #B4D29C",
"e. c #BEDDA4",
"r. c #C0D8AC",
"t. c #DCC7B6",
"y. c #C7DDB4",
"u. c #E1C8B5",
"i. c #E3CCBA",
"p. c #E7D1BE",
"a. c #E9D2BF",
"s. c #CCE9AE",
"d. c #D7CECC",
"f. c #D8CBC8",
"g. c #E5D2C3",
"h. c #E6D5C8",
"j. c #ECDBCC",
"k. c #E8DCD2",
"l. c #D5E2C8",
"z. c #DCEACD",
"x. c #D8ECC5",
"c. c #DDE9D3",
"v. c #E1EDD5",
"b. c #E4EEDB",
"n. c #F7EDDE",
"m. c #E2F1D4",
"M. c #E7F0DF",
"N. c #ECF7DE",
"B. c #E8EDE4",
"V. c #EEEDEE",
"C. c #ECE7E4",
"Z. c #F0EFEE",
"A. c #EDF7E1",
"S. c #F0F0EF",
"D. c #EEEFF0",
"F. c #F3F3F3",
"G. c #F7F8F6",
"H. c #F9F9F6",
"J. c #FDFDFD",
/* pixels */
"V.V.D.H.J.J.H.D.V.V.J.J.J.F.V.V.F.J.J.J.V.V.V.J.J.J.J.D.V.V.J.J.J.F.D.V.F.J.J.J.V.V.Z.H.J.J.H.V.V.V.",
"V.V.D.G.J.J.H.D.D.V.J.J.J.F.D.D.F.J.J.J.V.D.V.F.J.J.H.D.V.V.J.J.J.F.V.V.F.J.J.J.V.D.D.H.J.J.J.D.V.V.",
"V.D.D.J.J.J.J.V.D.D.J.J.J.F.D.D.F.J.J.J.D.D.D.H.J.J.H.D.D.D.J.J.J.F.D.D.F.J.J.J.D.D.D.H.J.J.J.D.V.V.",
"H.H.H.F.F.F.F.H.H.H.F.F.F.H.H.H.G.F.F.F.H.H.J.F.F.F.G.H.H.H.F.F.F.H.H.H.H.F.F.F.G.G.J.F.F.F.F.H.H.J.",
"J.J.J.F.D.V.F.J.J.J.V.V.V.H.J.n.k.j.h.V.J.J.J.F.V.V.F.J.J.J.V.D.D.G.J.J.H.V.V.V.J.J.J.F.D.V.F.J.J.J.",
"J.J.J.F.V.V.F.J.J.J.V.D.V.H.J.%.T y 8 h J.J.J.F.V.V.F.J.J.J.V.V.D.H.J.J.H.V.V.V.J.J.J.F.V.V.F.J.J.J.",
"H.J.J.F.F.F.F.H.H.H.F.F.F.F.H.%.{ p 9 a H.H.J.F.F.F.F.J.J.H.F.F.F.G.J.H.G.F.F.F.H.H.J.F.F.F.F.H.H.J.",
"D.V.D.H.J.J.H.D.D.V.J.J.J.F.V.%.~ p 9 d D.D.V.H.J.J.H.V.V.V.J.J.J.F.V.D.F.J.J.J.D.D.V.H.J.J.H.D.V.V.",
"V.V.V.H.J.J.H.V.V.V.J.J.J.F.D.%.{ p w f V.Z.Z.H.J.J.J.Z.V.V.J.J.J.F.Z.D.F.J.J.J.V.D.D.H.J.J.H.D.D.V.",
"V.V.D.H.J.J.J.V.V.V.J.j.] u k w 8 7 8 1 ' l [ [ [ [ [ [ [ [ ] ' ' ' k k k k k k | C.D.H.J.J.H.V.V.V.",
"J.J.J.F.V.V.F.J.J.J.V.2.6 6 6 6 6 7 9 9 w r y y R p p y y t y r w 9 8 6 6 6 6 7 % g.J.F.V.V.F.J.J.J.",
"J.J.J.F.V.V.F.J.J.J.V.1.6 6 6 6 = O w w r t p R R R R R R R y y r w 9 7 & ; ; * - g.J.F.V.D.F.J.J.J.",
"J.J.J.F.D.D.F.J.J.J.D.#.6 6 6 6 % & q e y p R R R W W W R R R y p r w 9 6 6 6 6 6 a.J.F.V.V.F.J.J.J.",
"F.F.F.G.H.H.G.F.F.F.H.` . . O ; 7 q r y p R R W Q Q Q Q W W R R p r r 9 8 6 6 6 6 i.F.F.J.H.G.F.F.F.",
"D.V.V.H.J.J.H.V.V.V.J.2.6 6 6 6 9 w t p R R W Q { { ~ { ~ ~ W R p p r 9 8 6 6 6 6 u.D.H.J.J.H.D.V.V.",
"V.V.Z.H.J.J.J.V.V.V.J.2.6 6 6 8 9 r t p R W Q Q } ....} } ~ Q W W p r w 9 8 6 6 6 u.V.J.J.J.H.D.F.V.",
"F.F.F.H.H.H.H.F.F.F.H.$.6 6 6 8 w r y R E W ~ } } o.o.} } { ~ W E p y w 9 8 6 6 6 i.F.G.H.H.G.F.F.F.",
"J.J.J.F.D.D.F.J.J.J.V.#.6 6 6 8 w r t R W W ~ } } o.o.o...{ ~ W R p t r w 6 6 7 6 g.J.F.V.V.F.J.J.J.",
"J.J.J.F.D.D.F.J.J.J.V.+.# # % & 0 e p R E Q Q } o.o.o.o.} } ~ ~ E p t w 9 > $ # o i.J.F.V.V.F.J.J.J.",
"J.J.J.D.V.V.F.J.J.J.V.+.* * = - < < < 5 i u E ~ } } o.o.} } ~ W E p t 9 7 > - - : g.J.F.V.V.F.J.J.J.",
"V.V.V.F.J.J.H.V.V.V.J.$.6 6 6 6 w w t R R W ~ } } } } } ~ ~ ~ W R p t r 9 7 6 6 6 u.V.F.J.J.H.D.V.V.",
"F.V.D.H.J.J.J.V.F.V.J.$.6 6 6 6 w w r p R R W ~ { { { { ~ ~ W R p t r r 9 6 % # X t.D.J.J.J.G.V.F.V.",
"D.D.D.H.J.J.H.D.V.V.J.2.6 6 6 6 8 9 r t y R R W W Q ~ Q W W R R p t r 9 8 6 6 7 0 i.V.H.J.J.H.V.V.V.",
"H.H.J.F.F.F.F.H.H.H.F.$.6 6 6 6 $ ; w t y R R R E W W R R R R R t r w 9 6 6 6 6 6 i.H.F.F.F.G.J.H.H.",
"J.J.J.F.D.V.F.J.J.J.V.+.X o % 6 + + 9 r r y p p R R R p e R y t r w 9 8 6 6 6 6 6 a.J.F.V.V.F.J.J.J.",
"J.J.J.F.V.V.F.J.J.J.V.1.8 9 8 6 6 8 8 9 w r t y y y R i 1 e t r w 9 9 6 6 6 6 6 6 g.J.F.V.V.F.J.J.J.",
"H.H.J.F.F.F.F.H.H.H.F.3.O $ $ # $ $ % & , > , , 0 1 1 : * 1 , > > % % $ $ $ $ # @ k.H.G.F.F.F.J.H.H.",
"D.D.V.H.J.J.H.D.Z.V.J.J.f.5.4.l 4 2 *   4.4.4.6.7.7.6.5.4.4.7.7.7.5.4.4.6.7.8.8.d.V.D.H.J.J.H.V.D.D.",
"V.D.D.H.J.J.H.D.V.V.J.J.J.F.S.%.~ p 9 d F.V.V.H.J.J.H.Z.V.V.J.J.J.F.D.V.F.J.J.J.V.V.V.H.J.J.H.V.V.D.",
"V.V.D.H.J.J.H.D.V.V.J.J.J.F.S. .{ p 9 d V.V.V.G.J.J.H.V.V.V.J.J.J.F.V.V.F.J.J.J.V.V.V.H.J.J.J.V.V.D.",
"J.J.J.F.V.V.F.J.J.J.V.V.V.H.J.O.~ p 9 a J.J.J.F.V.V.F.J.J.J.V.V.D.H.J.J.H.D.V.V.J.J.J.F.V.V.F.J.J.J.",
"J.J.J.F.V.D.F.J.J.J.V.D.Z.H.J.O.~ R 0 f J.J.J.F.D.V.F.J.J.J.V.V.D.H.J.J.H.D.D.V.J.J.J.F.V.V.F.J.J.J.",
"J.J.J.F.V.V.F.J.J.J.V.V.V.J.J.%.Q R 0 d J.J.J.F.D.V.F.J.J.J.V.V.V.J.J.J.H.D.D.V.J.J.J.F.D.D.F.J.J.J.",
"F.F.F.H.J.H.G.F.F.F.J.H.H.F.F.O.Q p 9 a F.F.F.G.H.J.F.F.F.F.H.J.H.F.F.F.G.H.H.J.F.F.F.F.H.J.F.F.F.F.",
"V.D.D.H.J.J.H.V.V.V.J.J.J.F.V.%.{ y 0 d V.V.V.H.J.J.J.V.V.V.J.J.J.F.V.V.F.J.J.J.V.V.V.H.J.J.H.D.V.Z.",
"V.D.D.H.J.J.H.D.V.V.J.J.J.F.V. .{ R 0 a V.V.D.H.J.J.G.V.D.V.J.J.J.F.V.V.F.J.J.J.V.V.V.H.J.J.G.D.V.D.",
"F.F.F.H.H.J.H.F.F.F.H.H.H.F.F.%.~ p 9 a F.F.F.G.H.J.H.F.F.F.H.H.H.G.F.F.F.H.G.G.F.F.F.H.H.H.H.F.F.F.",
"J.J.J.F.V.V.F.J.J.J.V.V.D.H.J.%.~ p 9 a J.J.J.F.V.V.F.J.J.J.V.V.V.J.J.J.H.D.V.V.J.J.J.F.D.D.F.J.J.J.",
"J.J.J.F.V.V.F.J.J.J.V.V.V.M.J.O.^ p w g J.J.G.F.V.V.F.J.J.J.V.V.V.G.J.J.J.D.V.V.J.J.J.F.V.V.F.J.J.J.",
"J.J.J.F.V.V.D.J.J.J.V.B.b.x.J.X.! p 3 ) J.J.c.F.V.V.F.J.J.J.V.V.V.G.J.J.H.D.V.V.J.J.J.F.V.V.F.J.J.J.",
"V.V.D.H.J.J.G.D.V.V.J.N.s.q.w.P U T U K e.e.w.c.J.J.G.V.V.V.J.J.J.D.V.V.F.J.J.J.V.V.D.G.J.J.H.D.V.V.",
"V.V.D.J.J.J.H.D.V.V.J.H.>.;.J B L K I x J J 9.w.J.J.J.D.V.V.J.J.J.F.V.V.F.J.J.J.V.V.D.G.J.J.H.D.V.D.",
"V.V.D.H.J.J.H.D.V.D.J.A.<.*.m Z V z A A J M :.0.J.J.H.D.V.V.J.J.J.F.V.V.F.J.J.J.V.D.D.J.J.J.J.V.V.V.",
"J.H.H.F.F.F.G.H.H.H.F.c.;.&.G B D c n S J J ,.e.F.F.F.J.H.H.F.F.F.H.J.H.H.F.F.D.H.H.H.F.F.F.F.H.J.H.",
"J.J.J.F.V.V.F.J.J.J.V.x.&.=.v M V v n / b F -.e.D.V.F.J.J.J.V.V.D.H.J.J.J.V.V.V.J.J.J.F.D.V.F.J.J.J.",
"J.J.J.F.V.V.F.J.J.J.V.B.c.M.m.m.v.l.l.x.c.A.m.V.Z.V.F.J.J.J.V.V.V.H.J.J.H.V.V.V.J.J.J.F.V.V.F.J.J.J.",
"J.H.H.G.F.F.F.H.H.J.F.F.F.G.H.G.F.F.F.F.G.H.H.F.F.F.F.H.H.H.F.F.F.G.H.J.H.F.F.F.H.J.J.F.F.F.F.H.H.J.",
"D.D.D.H.J.J.J.V.V.V.J.J.J.F.D.D.F.J.J.J.D.D.D.H.J.J.H.D.D.V.J.J.J.F.V.V.F.J.J.J.V.V.D.H.J.J.H.D.V.V.",
"V.V.D.H.J.J.H.D.V.V.J.J.J.F.V.V.F.J.J.J.V.V.Z.H.J.J.H.D.V.V.J.J.J.F.V.V.F.J.J.J.V.V.V.H.J.J.H.D.V.D.",
"V.V.D.F.J.J.H.D.D.D.J.J.J.F.Z.D.F.J.J.J.V.D.D.H.J.J.J.V.V.V.J.J.J.F.V.D.F.J.J.J.V.F.V.H.J.J.H.F.V.V."
};
