/* XPM */
static char *a91c99da67514701fa41d2d07b9397d3tKvz3NoYWYnDGCro[] = {
/* columns rows colors chars-per-pixel */
"32 32 6 1 ",
"  c None",
". c #442434",
"X c #4E4A4E",
"o c #757161",
"O c #8595A1",
"+ c #DEEED6",
/* pixels */
"  ++o+o+o+++o+o++oXo+++o+o+o++  ",
" +XOO+OOO+OOX+OOOO+OOOXOOO+OOO+ ",
"+OOOoOOOOOoOoOOoOOOoOOOOOOOoXOO+",
"+oO+XO+XOoOOOO+OO+OOXOoOO+oOOXO+",
"OO+oOOXoXXooOOOooOXOX+oOoXoOo+OX",
"oOXOooOOOXOOXXOXOXOOXoXXOOOOOXOO",
"OXOXXooXXoooOoOoXXXXXooXXoXOXOoO",
"XXoOoOOooOoXoXOXXOOoOooOoOXoOoOO",
"OooOXoooXoooOoXOoXOooXOoXXoOXOoO",
"oOXXXOoXoXXoXoooooooXXOoooXXXoOX",
"Xooo.oOooXXooXXoXoXooXooXoXXOXXX",
"OXOOXOoXXooooOXXoXXoOoXOoooooXXo",
".ooOOoooo.oXoXoooXoXoXooXXXXoooo",
"oOo.oooXXoXXooXoXXoXoXoooOoXoXXX",
"ooOooXXooXXoXXXooXoooXoXooXXoXXO",
"OoXooXXXoXoooXXoooXXX.OX.X.XoXXo",
"ooooXXo.XXX.ooXXooo.XXoX.oXXoX.X",
".oooooXoXoXoXXoXXXXo.XX.oXo..Xoo",
"oooXooX.oo..XooXXoX.XXXX.XoX.XXX",
"o.oX..XXXXX..XXXXXX.oX.XXoXooXXX",
"XXoXX..Xoo.oXo..oX..XX.o.XXXo..o",
"ooXXoo.oXX...oXXoXXXooooXoXXXXoX",
"XooO.....ooXoX.o.XXOoX...XXooO..",
"o.o.oooX.XXXX.oX..oXXooXXXXXoXXo",
"oo.X..XXo..Xo.+...X..XXXX+.ooXXX",
"OXo.OoXXO...Xo...X.O.oX.XX..XXOO",
"......ooOXooXX.oXXXXo.XXo..XooXX",
"Xo.XXoX.XoOX.o.X.X..XOXXXOo..OXX",
"o..oo..o.....X.o..XX...Xo..oX...",
".XX..X..XXX..XX.X.........X..XX.",
" .XX.XXX.XXXX.X.X.....X.......X ",
"  .XX..XXX..XX.X....X.X....X..  "
};
