/* XPM */
static char *rock[] = {
/* columns rows colors chars-per-pixel */
"50 50 139 2 ",
"   c #442434",
".  c #462937",
"X  c #462D3A",
"o  c #492D39",
"O  c #47303C",
"+  c #4A333E",
"@  c #50373F",
"#  c #493741",
"$  c #4B3C44",
"%  c #513541",
"&  c #523C43",
"*  c #553E4B",
"=  c #4D4047",
"-  c #4C4349",
";  c #4E4A4E",
":  c #554145",
">  c #594547",
",  c #53454A",
"<  c #594648",
"1  c #524C4E",
"2  c #5B4B4B",
"3  c #5D504F",
"4  c #574452",
"5  c #584756",
"6  c #524E51",
"7  c #5D4F54",
"8  c #555152",
"9  c #5A5553",
"0  c #5E5A56",
"q  c #555458",
"w  c #5A565D",
"e  c #5A595D",
"r  c #604F4D",
"t  c #60514E",
"y  c #625551",
"u  c #635B55",
"i  c #695E56",
"p  c #625E58",
"a  c #695F5A",
"s  c #6A6057",
"d  c #65615A",
"f  c #6B665B",
"g  c #6D695D",
"h  c #716C5F",
"j  c #5E5661",
"k  c #5C5D63",
"l  c #625967",
"z  c #5F6168",
"x  c #646463",
"c  c #686762",
"v  c #6B6A65",
"b  c #63666D",
"n  c #6A676B",
"m  c #66686B",
"M  c #6B6B6A",
"N  c #736F60",
"B  c #726E6B",
"V  c #6F706C",
"C  c #757161",
"Z  c #75746B",
"A  c #78776C",
"S  c #77786F",
"D  c #79786C",
"F  c #6B6671",
"G  c #666B72",
"H  c #696E74",
"J  c #6D6B78",
"K  c #706F74",
"L  c #6D7174",
"P  c #6B727A",
"I  c #727572",
"U  c #797674",
"Y  c #767974",
"T  c #7A7B73",
"R  c #71747B",
"E  c #757B7D",
"W  c #7A7E7A",
"Q  c #877C7B",
"!  c #7C817D",
"~  c #898877",
"^  c #8F907E",
"/  c #727582",
"(  c #727A83",
")  c #767E89",
"_  c #7D8383",
"`  c #77828B",
"'  c #7C858B",
"]  c #7F888A",
"[  c #7B8791",
"{  c #7D8B95",
"}  c #808581",
"|  c #888C86",
" . c #808A8D",
".. c #8B928D",
"X. c #909382",
"o. c #92978E",
"O. c #949888",
"+. c #828E94",
"@. c #818E9A",
"#. c #859093",
"$. c #889394",
"%. c #83929C",
"&. c #9CA08D",
"*. c #9BA49C",
"=. c #A4A299",
"-. c #A2AB9E",
";. c #AAB09C",
":. c #8595A1",
">. c #8B9BA5",
",. c #909EA1",
"<. c #95A2A4",
"1. c #9DA8A2",
"2. c #92A2A9",
"3. c #9CACAE",
"4. c #9FAFB1",
"5. c #A2ADA5",
"6. c #A7B1A6",
"7. c #ACB4A4",
"8. c #A8B4AB",
"9. c #B0B7A3",
"0. c #B4BDAB",
"q. c #A3B3B3",
"w. c #ACBCB8",
"e. c #B3BFB2",
"r. c #B8C2AF",
"t. c #B5C2B4",
"y. c #BDC7B1",
"u. c #B7C7BF",
"i. c #BBC8B9",
"p. c #C4CFB9",
"a. c #BBCBC1",
"s. c #C2D2C5",
"d. c #CAD7C0",
"f. c #CCDCCB",
"g. c #D1DEC7",
"h. c #D5E4CE",
"j. c #D8E7D0",
"k. c #DEEED6",
"l. c None",
/* pixels */
"l.l.l.k.k.k.^ ~ k.&.! k.;.C j.k.k.k.i.C y.g.N 9.k.k.9.C 6 9 C p.k.k.k.j.C ;.k.! ^ k.~ ^ k.k.k.l.l.l.",
"l.l.l.-.6.u...o.k.-.! i.*.! j.h.u.u.6.d r.h.! 1.u.u.1.! ..| ! 8.u.u.8.-.! *.u.] ;.k.o.O.a.a.a.l.l.l.",
"l.l.k.l x %.:.2.k.q.:.:.%.:.j.a.:.:.` ; r.f.:.%.%.:.:.:.j.s.%.:.:.:.z 8 %.:.:.:.q.k.2.%.{ >.2.k.l.l.",
"k.a.2.{ { %.! ! 2.>.:.{ :.:.2.#.D { ] N #.2.:._ A :.:.:.2.$.D { :.:.{ { %.:.:.:.>.<.! V q ` :.2.a.k.",
"k.t.#.%.2.q.Y M :.3.3.` { :.{ _ ! #.%.! #.%.4..._ { 2.4.%.{ ! ! ` { { ] :.:.{ 4.<.] ! A z P ` %.u.k.",
"k.9.C %.q.k.V e :.a.h.; P %.C ! :.%.:.%.%.2.k.w.>.{ t.k.2.:.{ k z { ! ! :.:.:.j.r.C { >.%.z e :.u.k.",
"3.,.{ i.t.^ ] [ :._ V f d z 8 d ! S ! %.:.%.4...! S #.3.z H >.z c f.O.C :.] A Z Z C { { ! ;.r.:.' Z ",
"#.%.:.i.7.S ] #.{ H e A m e 6 0 Z D ! ` { { :.! g A ! [ z H { z z d.X.h { _ ! k x A { #.! ;.t.{ P e ",
"C ! :.q z :.T C C ] %.:.:.:.6 b { { ` ; ; e { G ; { P ; { { >.z 9 N 9 ; ; P %.:.:.:.:.%.%.z q %.:.:.",
"] E b P P z e d C S ! b b z d V ! ! ! ! m H { ! d G z 6 z z G q 9 C g d ; e z ! Y m { { z P ` ! { %.",
"{ P ; { ( 8 8 8 C Z C 6 6 6 C C Z C ! { ! C >._ C ; ; q 6 6 ; 6 9 C C N 6 6 6 A d ; _ ` q ` { C ] :.",
"6 ; ; N ! %.T S %.:.%.C C C %._ C 8 8 C 9 q { G ; ; H { :.[ C { { C C A { ] C { ` ; f ! { ! A :.:.:.",
"P b d N T :.M d _ _ ! C g d ! ! C d g _ g p H P L p z L { { C ! ! 0 I _ _ V p H z p ! ! H ! _ _ #.:.",
":._ C C ! :.z 8 C C C C 0 ; h C C C ! { ! h ; P { C d ; { { C C h ; ( { C p ; ; 0 C { ` ; ` { C _ :.",
"Z ! %.q ; 6 ; q %.! C ; d C 6 6 ; g g 6 f C N C D C C N C C C 0 ; ; ` { C C C C d ; ; ; ; v ! { H 6 ",
"d V ] d 0 0 - 1 ] ! T 0 d C ; ; ; g g 0 p f d g C f g C f f N d 9 ; L _ C g d C d ; ; q z d f ( z ; ",
"; 0 C C C C @ + N ! $.C C C 1 ; ; g C C 6 ; ; p C ; p C 6 0 C C g ; d C C p ; C d ; ; z %.z ; ; ; 1 ",
"[ L 8 ' +.#.e q ] ! ! 8 8 8 g h g C C C ! ` ; ; 8 g p 8 ; 9 N ] ] g 0 9 +.W f C N g g v S 0 ; ; u f ",
"( m q ' #.:.H m ] ! N 8 8 9 i f C g g C ! ` 9 8 8 C p ; 8 p g ! ] f 0 0 { T f f f g f g C p 8 9 d C ",
"  < C C T :.%.{ C C C C C C . : C 8 8 C 0 6 C C C C d ; g d ; g g ; d C C u 6 ; ; ; ; 8 C C C C C C ",
"u B  .Z f 6 V S C N N 9 0 9 u 0 0 ; 8 C g d 0 d C 9 8 ; h d ; g g ; d C C g f ( I f 8 8 C p 9 9 9 9 ",
"C W %.D f O s C N N N 1 1 1 g p ; 6 0 h g g ; d C 6 ; ; h g 6 g g ; d C g C C #._ N 8 9 C 9 ; ; 8 q ",
"C C C %.] N C g ; ; 1 C C C 1 ; ; g g ; ; ; ; d C C d ; h N N N g ; d N ; d C C d ; ; 8 C 0 ; ; P :.",
"] T C M V C C g ; ; 1 0 g C 1 8 d h h p 8 ; ; p C C g p p 0 p p 9 # m _ ; , > 0 1 + ; 8 C 9 ; ; m ! ",
"%.} C 6 9 C C g ; ; ; ; p C 1 0 C C N C 9 ; ; p C C C C 8 ; ; ; -   H %.; #   ; $   - 9 C 9 ; ; d C ",
"C C C C C C 8 1 ; d N   # ; ; ; ; X @ C C h ; ; ; C N N N p   - ; ; d h ; #   h d ; ; 8 C 0 -   $ ; ",
"y i C N C C d 0 0 p i < 1 ; 0 9 ; < 3 p d p 0 9 ; d d d d 0 < $ $ ; 0 0 # : < 0 u 0 $ : 3 1 ; > 9 u ",
"  < C C C C C C C 0 1 C u ; N d ; h g ; 1 1 C 0 ; ; ; ; ; 9 C @ X ; ; ;   2 C 6 0 C +     = 1 C N C ",
"g h C C f 8 f C C 0 ; X 2 h N y . O + ; d h N 0 ; ; 0 h 1 - X = ; ; ; ; ; @ o ; 0 C 6 =   = ; 8 6 6 ",
"h g u h f ; y u y 1 ; O 2 f g 3 O   X = 0 f f 9 ; ; 9 f 1 -   1 9 ; - = ; $ O 8 0 f 0 8 & - ; ; ; ; ",
"C r   g f ; X     $ ; ; ; ; ; ; 1 X     = ; ; ; ; ; ; ; ; $   i g ; O   ; ; ; C d ; g N C 0 ; ; ; ; ",
"9 2 = h d ; - $   X O ; 9 g g 3 X 3 9 = 0 p X O O g 0 ; O .   < 8 ; O . f 2 X 8 8 ; 8 u C : X O 2 f ",
"8 9 8 f p 1 6 1 + . . 3 u g g 3   t u - f h X X X N d ; X X X 1 8 8 $ @ C 2 X 1 6 ; ; 8 g : X + 9 h ",
"N N C 1 ; ; f C h > . C u ; ; $         y h ; ; ; C d ; ; ; ; d C C C C C u ; C d ; ; ; ; ; 8 N u ; ",
"0 d C f n ( 9 : > o . & $ O d u 0 $ : y y 9 O 2 d : , ; ; j ( Z h 0 2 : : $ O 9 8 ; d d d L L : $ O ",
"1 u h N U @.> . . . . .     h C C 8 8 N 9 - . t C   + - ; x %.I g 6 + . .   . ; ; ; f C C ] ` .   X ",
"C 3   h y   s C C N N ; +   , ; 1 ; ; ; o o h u ;       g f ; ; 8 C C C ; ; ; ; ; ; ; 9 C 0 ; ; d C ",
"N s 2 2 > + < 2 2 0 p ; 1 r # # # - 8 p # % ;.B #       9 3 # # $ u u u ; ; ; o.U # 9 s C 9 ; ; 9 0 ",
"C C C o O ; X     $ ; ; p C .     - 9 C & * k.Q         - =     X ; ; ; ; ; ; h.=.  f C C 9 ; ; 6 ; ",
"%.R 6 g y . R [ h 0 ; ; H %.o       o 1 s g @ .     O ; X 4 { , + h 0 ; . # ; q ,   . O ; ; q %.%.{ ",
"J j $ y >   l F t y 0 0 R :.$ # : : : ; 0 u   + , O $ ; # 5 / 9 > y 6 ; O , p $ O   o $ 0 0 e ( ( ( ",
"                  y C C ! :.6 u C C g ; ; -   3 C ; ; ; ; ; ; f s   $ ; 6 p N .     - 9 C C h ; ; ; ",
"- 2 s o X - - 1 s 0 6 + , e g I +.k ; X y s   $ 8 X # ; X X X ; e ` k ; ; 6 6 ) R s # o o R ] ; ; ; ",
"8 u i . O 9 9 9 i 2 = @ $ $ i M / 6 #   0 u   : 8   O - O X X # 5 ( j $ ; 6 9 / I i & @ o b P - $ - ",
"C 3     & C C s     . N 2               $ -   t C       - ; ; X         ; p N .     f f 6 #         ",
"& & $ $ $ & & & $ o   $ & $ $ $ $ .     = ; = $ & $ O   O X O X         o # &   o $ & # o # $ $ O   ",
"  # ; ; $ X   X 6 # X . # - 6 ; ; O . X $ - ; #   ; $               . .         # - X     $ - ; #   ",
"l.l.  - ; ; X X ; ; ; ; #   ; ; ; ; ; ; O . ; +   ; #               # ;                     . ; l.l.",
"l.l.l.+ $ ; $ # # # # ; - # ; - # O $ ; $ $ # # # # O         O #   $ ;             + O       l.l.l.",
"l.l.l.  O ; ; -       ; ; ; ; $     X ; ; -   # ;             - -   # ;             - -       l.l.l."
};
