/* XPM */
static char *starfish[] = {
/* columns rows colors chars-per-pixel */
"50 36 199 2 ",
"   c #CF4406",
".  c #D64705",
"X  c #D74804",
"o  c #DB4B04",
"O  c #D74C0A",
"+  c #D84E09",
"@  c #DC4701",
"#  c #DB5205",
"$  c #DD5906",
"%  c #DD5209",
"&  c #D34E11",
"*  c #D45312",
"=  c #D95211",
"-  c #D75912",
";  c #DB5A1D",
":  c #E25304",
">  c #E25E06",
",  c #EA5C06",
"<  c #E2550B",
"1  c #E95708",
"2  c #E45B0D",
"3  c #E95C0A",
"4  c #F15F02",
"5  c #E45D11",
"6  c #E46307",
"7  c #EB6405",
"8  c #E4620B",
"9  c #EB630B",
"0  c #E76A09",
"q  c #ED690B",
"w  c #F16304",
"e  c #F56B02",
"r  c #F96D02",
"t  c #F16C0B",
"y  c #ED700E",
"u  c #EF790D",
"i  c #F67105",
"p  c #FA7304",
"a  c #F4750C",
"s  c #F97708",
"d  c #F57A0C",
"f  c #FA7D09",
"g  c #FC7905",
"h  c #E46413",
"j  c #E96615",
"k  c #EA6B15",
"l  c #EC6D1A",
"z  c #E56917",
"x  c #ED7312",
"c  c #E7741F",
"v  c #ED731C",
"b  c #EF781E",
"n  c #E97616",
"m  c #F17513",
"M  c #F47C15",
"N  c #F0761D",
"B  c #F27C1B",
"V  c #DA642C",
"C  c #D76938",
"Z  c #DE723D",
"A  c #E26728",
"S  c #E36A29",
"D  c #E16525",
"F  c #ED7423",
"G  c #EE7A24",
"H  c #E8752F",
"J  c #ED7829",
"K  c #E67422",
"L  c #F17721",
"P  c #F17B22",
"I  c #F17E2D",
"U  c #E16D33",
"Y  c #E17034",
"T  c #E97C36",
"R  c #DB7141",
"E  c #DB784D",
"W  c #D77D57",
"Q  c #E07341",
"!  c #F9830F",
"~  c #EF811D",
"^  c #F68115",
"/  c #F68C17",
"(  c #FC8D11",
")  c #F4851D",
"_  c #F58B1A",
"`  c #F98D1C",
"'  c #F98717",
"]  c #FC9316",
"[  c #FE9817",
"{  c #F7921B",
"}  c #FA941C",
"|  c #FA9B1C",
" . c #FDA41F",
".. c #F38223",
"X. c #F68A23",
"o. c #F4842A",
"O. c #F58B2B",
"+. c #FA8D29",
"@. c #F79223",
"#. c #F89323",
"$. c #F79926",
"%. c #FA9C23",
"&. c #F6932B",
"*. c #F9942E",
"=. c #F69B2B",
"-. c #F99C2B",
";. c #ED8035",
":. c #EE863C",
">. c #F58C32",
",. c #F28B3B",
"<. c #F69136",
"1. c #F89730",
"2. c #F89C39",
"3. c #F7A026",
"4. c #FBA422",
"5. c #FDAB24",
"6. c #FBA32A",
"7. c #FCAB2C",
"8. c #FCB22B",
"9. c #FCBB2F",
"0. c #FAA432",
"q. c #FBAB33",
"w. c #FAA239",
"e. c #FBAC3A",
"r. c #FCB234",
"t. c #FDBA35",
"y. c #FCB43B",
"u. c #FDBC3C",
"i. c #FDC235",
"p. c #EB8B4C",
"a. c #F28F41",
"s. c #EF914E",
"d. c #F5974A",
"f. c #E78B5E",
"g. c #EF9858",
"h. c #EC9258",
"j. c #F09758",
"k. c #F59A50",
"l. c #F7A149",
"z. c #FAAB44",
"x. c #FBB145",
"c. c #FCBB40",
"v. c #FBB548",
"b. c #FBBD48",
"n. c #DD9273",
"m. c #EA8D60",
"M. c #E99369",
"N. c #EE9B62",
"B. c #F6AD6D",
"V. c #EAA17D",
"C. c #F0A570",
"Z. c #F7AF70",
"A. c #F5B27D",
"S. c #F7B175",
"D. c #FDC940",
"F. c #FCC349",
"G. c #FCD161",
"H. c #E09D80",
"J. c #DDA188",
"K. c #EFAC80",
"L. c #ECAD8F",
"P. c #F0AD87",
"I. c #F1B58B",
"U. c #E8AE93",
"Y. c #EFBEA7",
"T. c #F0BEA7",
"R. c #F2C59B",
"E. c #EEC3A9",
"W. c #F4C6A4",
"Q. c #F1C2AB",
"!. c #EECCBC",
"~. c #ECC6B0",
"^. c #F0C7B4",
"/. c #F3CEB2",
"(. c #F2CDBB",
"). c #F6D2B8",
"_. c #EED2C2",
"`. c #EDD7CF",
"'. c #F2D4C5",
"]. c #F6DBC3",
"[. c #F2D7CA",
"{. c #F6DECB",
"}. c #F3DFD5",
"|. c #EEE1DB",
" X c None",
".X c None",
"XX c None",
"oX c None",
"OX c None",
"+X c None",
"@X c None",
"#X c None",
"$X c None",
"%X c None",
"&X c None",
"*X c None",
"=X c None",
"-X c None",
";X c None",,
/* pixels */
"-X*X-X*X*X-X*X-XoX-XoX-X*X-X*X*X-XoX-XoX-X*X-X*X*X%X*X-X%X-XoX-XoX-X*X*X-XoX-XoX-XoX-X*X-X*X*X-XoX-X",
"*X-X*X-X*X*X*X*X-XoX-X*X-X*X-X*X*X-X*X-XoX-X*XS.*.+.A.%X-X*X-X*X-X*X-X*X*X-X*X-X*X-X*X-X*X*X-XoX-X*X",
"-X*X-X*X*X-X*X-X*X-X*X-X*X-X*X-X-X*X-X*X-X*XB.x.t.i.x.S.*X-X*X-X*X-X*X*X-X*X-XoX-X*X-X*X*X-X*X-X*X-X",
"*X*X*X*X=X*X*X*X*X*X-X*X-X*X*X*X*X*X*X-X*X.X<.9.F.t.D.<..X*X-X*X*X-X*X-X*X-X*X-X*X-X*X*X*X-X*X*X-X*X",
"-X*X*X*X-X=X-X*X*X*X-X*X*X-X-X*X*X*X*X-X*X].$.F.e.q.G.*.).*X-X*X*X*X*X*X*X-X-X*X*X*X*X*X=X*X-X*X=X*X",
"-X*X-X*X*X=X*X-X*X-X*X*X*X*X*X=X-X*X*X*X-XZ.0.F.0.e.b.e.B.-X*X-X*X-X-X*X=X*X=X*X-X*X-X*X*X-X*X*X*X-X",
"oX-X*X-X*X*X*X*X-X*X-X*X-X*X-X*X*X-X*X-X%Xk.e.i.w.w.9.0.d.#X-XoX-X*X-X*X*X-X*X-XoX-X*X-X*X*X-X*X-XoX",
"-XoX-X*X*X-X*X-X*X-XoX-XoX-X*X*X-X*X-XoX-X,.r.8.=.1.8.y.>.-XoX-XoX-X*X-X-XoX-X*X-X*X-X*X-X*X*X-X*X-X",
"oX-X*X-X*X*X-XoX-X*X-X*X-X*X-X-X*X-X*X-X/.P r.t.K G 6.r.~ R.-X*X-X*X=X*X*X-X*X-XoX-XoX-X*X*X-X*X-X*X",
"-X*X-X*X-X-X*X-XoX-XoX-XoX-X*X*X-X*X-XoXXXb r.%.=.*.7.c.../.%X-XoX-X*X-X-X*X-XoX-XoX-XoX-X*X*X-XoX-X",
"oX-X*X-X*X*X-XoX-XoX-X*X-X*X=X=X*X-XoX-Xg.>.r.7.0 x 0.t.<.:.&X*X-X*X=X=X*X=XoX-X*X-X*X-X*X*X-XoX-XoX",
"-XoX-X*X*X-X*X-X*X@XI.N.K.C.I.].W.+X{.d.G &.F.6.K J 3.t.=.P G '.XXP.W.s.p.s.G g.P.*X-X*X*X-X*X-X*X-X",
"=X-X*X*X*X-X=X*X'.,.{ 0.-.) >.v v ;.G :.k.v.7.$.@.X.-.5.c.O...v c k O.l.=.3.7.| #.h.*X=X-X*X*X*X-X*X",
"*X-X-X*X*X*X*X-X:.%.| 5. .q.e.%.-.0.&.e.u.i.5.{ ! d B  .t.u.q.e.v.q.7.y.| %.3.%.6.b  X=X*X*X-X*X-X*X",
"-X*X-X*X-X*X*X*Xv 6.$.O.O.&.2.%.6.7.y.y.7.%.4.@.* - $.5.7.r.r.r.4.{ { @.O.o.O.%.4.o. X=X*X-X*X-X*X*X",
"oX-X*X=X*X*X-X*Xp.{ 6.%.@...n n X.@.X.@.| q.0.{ ....#. .-.| X...{ ..n z o.) =.3.) ;.*X-X*X*X-X*X-X*X",
"-X*X-X*X-X-X*X-XQ.T ) &.%.%.) G h 6 F / } ..{ | P o.[ #.P | / v $ h ..{ [ | ` ..H _.-X*X-X*X*X-X*X-X",
"oX-XoX-X*X*X-XoX-X~.p.l o._ | } _ v b 6 6 l P P P P P P v > $ F G ` | { <.o.h h._.-X*X-X*X*X-XoX-XoX",
"-X*X-X*X*X-X*X-XoX-X|.P.z z F P O.} { n j L L L L L L L P z n [ _ X.l P l 2 /.|.-XoX-X*X-X=X*X-XoX-X",
"*X-XoX-X*X*X-XoX-X*X-X%X(.V.2 F v J ..} ] #.` B N N N ` ] [ [ X.l J l S f.$X*X-X*X-X*X*X*X*X-XoX-X*X",
"-X*X*X*X-X*X*X-X*X-X*X=X*X*X}.A j k j B [ } M N v N N m ] [ ' F I F A }.*X*X-X*X-X*X-X*X*X*X*X-X*X-X",
"*X-X*X=X*X*X-X*X-X*X-X*X-X=X*X@XA k J v ( ^ l l m ^ l l B ( M F l # Q.=X*X=X*X-X*X-X*X-X-X*X-X*X-X*X",
"*X*X-X*X-X*X*X*X=X=X*X*X*X=X*X*XM.h j m ' { { k ' ( k / ] m ` l l Y +X-X=X*X=X=X*X*X*X*X*X*X*X=X*X*X",
"-X*X-X*X*X-X*X-X*X=X*X-X*X-X*X*XU j l M k $ $ y ( ( ^ # $ j M m j + `.*X-X*X=X*X-X*X-X*X*X-X=X-X*X-X",
"oX-X*X=X*X*X-X*X-X*X-X*X*X*X-X[.R j m M B 5 8 ! 7 , d x 5 B m ! 5 5 M.=X*X-X*X-X*X-X*X-X*X*X-X*X-X*X",
"-X*X-X*X-X*X*X-X*X-X*X-X*X-X*XU.5 3 M 0 u 3 d : @ 5 @ t q 0 8 a m l V %X-X*X-X*X-XoX-X*X-X-XoX-X*X-X",
"oX-X*X-X*X*X-XoX-XoX-X*X-X*X}.; 5 f k 3 % 0 1 @ < < : < m 2 2 x f y % f.*X-XoX-XoX-XoX-X*X*X-X*X-X*X",
"-X*X-X*X-X-X*X-X*X-XoX-X*X*X^.+ t a 0 3 t > o 5 < + < < o s 3 > 0 s 3 Z  XoX-X*X-XoX-X*X*X-X*X-XoX-X",
"oX-XoX-X*X*X-X*X-XoX-XoX-X*XZ t g q 1 q q X 2 O K.m.Q + 1 $ s 3 1 7 s % !.-X*X-X*X-X*X-X*X*X-XoX-XoX",
"-X*X-X*X*X*X*X-X*X-X*X-X*X_.= 7 p 1 w p @ : = +X*X=X#XL.X # 7 p , , p t Z *X-XoX-X*X-X*X*X-X*X-X*X-X",
"*X-X*X*X-X*X*X*X-X*X-X*X*X!.: p w , i 7 O R _.*X*X*X=X#XQ.. # p i : r p V #X*X-X*X-X*X*X*X=X*X*X-X*X",
"*X-X-X*X*X*X*X-X*X=X=X=X*XU., 7 w p e   E ^.*X-X=X*X*X*X*XT.& : i r w r V *X-X*X*X*X*X-X*X-X=X-X*X*X",
"-X*X-X*X-X*X*X-X*X*X*X-X*X|.X , 6 w @ W _.*X*X*X=X-X*X-X*X-XY.C # r w : n.*X=X*X=X=X*X*X=X-X*X-X*X-X",
"oX-X*X-X*X*X-X*X-X*X-X*X-X*XJ.X o   V.@X*X-X*X-X*X*X-XoX-X*X-X[.n.& & W #X=X*X-XoX-X*X-X=X*X-XoX-X*X",
"-XoX-XoX-X*X*X-XoX-X*X-XoX-X*X X`.}.-X*X-X*X-X*X-X*X*X-X*X-XoX-X*X*X=X=X-X*X-X*X-X*X-X*X-X-X*X-XoX-X",
"oX-X*X-X*X=X-X*X-XoX-X*X-X*X*X-X*X-X*X-XoX-X*X=X*X-X-XoX-XoX-XoX-X*X-X=X*X-XoX-XoX-X*X-X*X*X-XoX-XoX"
};
